{
  "accessors": [
    {
      "bufferView": 2,
      "componentType": 5126,
      "count": 32,
      "max": [
        0.25175574421882629,
        2.1582565307617188,
        0.076576672494411469
      ],
      "min": [
        -0.25175574421882629,
        -3.9802975654602051,
        -0.076576672494411469
      ],
      "type": "VEC3"
    },
    {
      "bufferView": 2,
      "byteOffset": 384,
      "componentType": 5126,
      "count": 32,
      "max": [
        0.51189321279525757,
        0,
        1
      ],
      "min": [
        -0.51189327239990234,
        -0.10710202157497406,
        -1
      ],
      "type": "VEC3"
    },
    {
      "bufferView": 3,
      "componentType": 5126,
      "count": 32,
      "max": [
        0.83911478519439697,
        -0.54163259267807007,
        0.43320903182029724,
        1
      ],
      "min": [
        0.70959591865539551,
        -0.5778537392616272,
        -0.43320906162261963,
        -1
      ],
      "type": "VEC4"
    },
    {
      "bufferView": 1,
      "componentType": 5126,
      "count": 32,
      "max": [
        0.98030048608779907,
        0.98914003372192383
      ],
      "min": [
        0.31288927793502808,
        0.0046473145484924316
      ],
      "type": "VEC2"
    },
    {
      "bufferView": 0,
      "componentType": 5125,
      "count": 72,
      "max": [
        31
      ],
      "min": [
        0
      ],
      "type": "SCALAR"
    },
    {
      "bufferView": 2,
      "byteOffset": 768,
      "componentType": 5126,
      "count": 207,
      "max": [
        0.92836624383926392,
        4.0313320159912109,
        0.16171552240848541
      ],
      "min": [
        -0.92836624383926392,
        1.096624493598938,
        -0.16171552240848541
      ],
      "type": "VEC3"
    },
    {
      "bufferView": 2,
      "byteOffset": 3252,
      "componentType": 5126,
      "count": 207,
      "max": [
        1,
        1,
        1
      ],
      "min": [
        -1,
        -1,
        -1
      ],
      "type": "VEC3"
    },
    {
      "bufferView": 3,
      "byteOffset": 512,
      "componentType": 5126,
      "count": 207,
      "max": [
        0.9999997615814209,
        1,
        1,
        1
      ],
      "min": [
        -0.9999997615814209,
        -1,
        -1,
        -1
      ],
      "type": "VEC4"
    },
    {
      "bufferView": 1,
      "byteOffset": 256,
      "componentType": 5126,
      "count": 207,
      "max": [
        0.77860152721405029,
        0.99298548698425293
      ],
      "min": [
        0.013455153442919254,
        0.010205388069152832
      ],
      "type": "VEC2"
    },
    {
      "bufferView": 0,
      "byteOffset": 288,
      "componentType": 5125,
      "count": 570,
      "max": [
        206
      ],
      "min": [
        0
      ],
      "type": "SCALAR"
    },
    {
      "bufferView": 2,
      "byteOffset": 5736,
      "componentType": 5126,
      "count": 28,
      "max": [
        0.14114478230476379,
        3.8989453315734863,
        0.12192284315824509
      ],
      "min": [
        -0.14042392373085022,
        2.610081672668457,
        -0.12192284315824509
      ],
      "type": "VEC3"
    },
    {
      "bufferView": 2,
      "byteOffset": 6072,
      "componentType": 5126,
      "count": 28,
      "max": [
        0.99999845027923584,
        0.22842517495155334,
        0.8660241961479187
      ],
      "min": [
        -0.99999850988388062,
        0.0017553255893290043,
        -0.8660241961479187
      ],
      "type": "VEC3"
    },
    {
      "bufferView": 3,
      "byteOffset": 3824,
      "componentType": 5126,
      "count": 28,
      "max": [
        0.86596906185150146,
        0.48047882318496704,
        0.99958807229995728,
        1
      ],
      "min": [
        -0.8659675121307373,
        -0.43754532933235168,
        -0.99999767541885376,
        1
      ],
      "type": "VEC4"
    },
    {
      "bufferView": 1,
      "byteOffset": 1912,
      "componentType": 5126,
      "count": 28,
      "max": [
        0.97973442077636719,
        0.97003060579299927
      ],
      "min": [
        0.73965036869049072,
        0.54215049743652344
      ],
      "type": "VEC2"
    },
    {
      "bufferView": 0,
      "byteOffset": 2568,
      "componentType": 5125,
      "count": 108,
      "max": [
        27
      ],
      "min": [
        0
      ],
      "type": "SCALAR"
    }
  ],
  "asset": {
    "extras": {
      "author": "Terallis (https://sketchfab.com/terallis)",
      "license": "CC-BY-4.0 (http://creativecommons.org/licenses/by/4.0/)",
      "source": "https://sketchfab.com/models/c7cb6fb3ada742e894f891ad18be1db4",
      "title": "Excalibur (Fate/Stay Night)"
    },
    "generator": "Sketchfab-3.18.2",
    "version": "2.0"
  },
  "bufferViews": [
    {
      "buffer": 0,
      "byteLength": 3000,
      "byteOffset": 0,
      "name": "floatBufferViews",
      "target": 34963
    },
    {
      "buffer": 0,
      "byteLength": 2136,
      "byteOffset": 3000,
      "byteStride": 8,
      "name": "floatBufferViews",
      "target": 34962
    },
    {
      "buffer": 0,
      "byteLength": 6408,
      "byteOffset": 5136,
      "byteStride": 12,
      "name": "floatBufferViews",
      "target": 34962
    },
    {
      "buffer": 0,
      "byteLength": 4272,
      "byteOffset": 11544,
      "byteStride": 16,
      "name": "floatBufferViews",
      "target": 34962
    }
  ],
  "buffers": [
    {
      "byteLength": 15816,
      "uri": "scene.bin"
    }
  ],
  "images": [
    {
      "uri": "textures/excalibur_metal2_baseColor.jpeg"
    },
    {
      "uri": "textures/excalibur_metal2_normal.jpeg"
    },
    {
      "uri": "textures/excalibur_metal_baseColor.jpeg"
    },
    {
      "uri": "textures/excalibur_metal_normal.jpeg"
    },
    {
      "uri": "textures/excalibur_hilt_baseColor.jpeg"
    }
  ],
  "materials": [
    {
      "doubleSided": true,
      "emissiveFactor": [
        0,
        0,
        0
      ],
      "name": "excalibur_metal2",
      "normalTexture": {
        "index": 1,
        "scale": 1,
        "texCoord": 0
      },
      "pbrMetallicRoughness": {
        "baseColorFactor": [
          1,
          1,
          1,
          1
        ],
        "baseColorTexture": {
          "index": 0,
          "texCoord": 0
        },
        "metallicFactor": 0,
        "roughnessFactor": 0.59999999999999998
      }
    },
    {
      "doubleSided": true,
      "emissiveFactor": [
        0,
        0,
        0
      ],
      "name": "excalibur_metal",
      "normalTexture": {
        "index": 3,
        "scale": 1,
        "texCoord": 0
      },
      "pbrMetallicRoughness": {
        "baseColorFactor": [
          1,
          1,
          1,
          1
        ],
        "baseColorTexture": {
          "index": 2,
          "texCoord": 0
        },
        "metallicFactor": 0,
        "roughnessFactor": 0.59999999999999998
      }
    },
    {
      "doubleSided": true,
      "emissiveFactor": [
        0,
        0,
        0
      ],
      "name": "excalibur_hilt",
      "pbrMetallicRoughness": {
        "baseColorFactor": [
          1,
          1,
          1,
          1
        ],
        "baseColorTexture": {
          "index": 4,
          "texCoord": 0
        },
        "metallicFactor": 0,
        "roughnessFactor": 0.59999999999999998
      }
    }
  ],
  "meshes": [
    {
      "name": "excalibur_model_excalibur_metal2_0",
      "primitives": [
        {
          "attributes": {
            "NORMAL": 1,
            "POSITION": 0,
            "TANGENT": 2,
            "TEXCOORD_0": 3
          },
          "indices": 4,
          "material": 0,
          "mode": 4
        }
      ]
    },
    {
      "name": "excalibur_model_excalibur_metal_0",
      "primitives": [
        {
          "attributes": {
            "NORMAL": 6,
            "POSITION": 5,
            "TANGENT": 7,
            "TEXCOORD_0": 8
          },
          "indices": 9,
          "material": 1,
          "mode": 4
        }
      ]
    },
    {
      "name": "excalibur_model_excalibur_hilt_0",
      "primitives": [
        {
          "attributes": {
            "NORMAL": 11,
            "POSITION": 10,
            "TANGENT": 12,
            "TEXCOORD_0": 13
          },
          "indices": 14,
          "material": 2,
          "mode": 4
        }
      ]
    }
  ],
  "nodes": [
    {
      "children": [
        1
      ],
      "name": "RootNode (gltf orientation matrix)",
      "rotation": [
        -0.70710678118654746,
        -0,
        -0,
        0.70710678118654757
      ]
    },
    {
      "children": [
        2
      ],
      "name": "RootNode (model correction matrix)"
    },
    {
      "children": [
        3
      ],
      "matrix": [
        1,
        0,
        0,
        0,
        0,
        0,
        1,
        0,
        0,
        -1,
        0,
        0,
        0,
        0,
        0,
        1
      ],
      "name": "17d451fb888e446c922a1be4070fb09f.fbx"
    },
    {
      "children": [
        4
      ],
      "name": "RootNode"
    },
    {
      "children": [
        5,
        6,
        7
      ],
      "matrix": [
        1,
        0,
        0,
        0,
        0,
        1,
        0,
        0,
        0,
        0,
        1,
        0,
        0,
        4.0513525009155273,
        0,
        1
      ],
      "name": "excalibur_model"
    },
    {
      "mesh": 0,
      "name": "excalibur_model_excalibur_metal2_0"
    },
    {
      "mesh": 1,
      "name": "excalibur_model_excalibur_metal_0"
    },
    {
      "mesh": 2,
      "name": "excalibur_model_excalibur_hilt_0"
    }
  ],
  "samplers": [
    {
      "magFilter": 9729,
      "minFilter": 9987,
      "wrapS": 10497,
      "wrapT": 10497
    }
  ],
  "scene": 0,
  "scenes": [
    {
      "name": "OSG_Scene",
      "nodes": [
        0
      ]
    }
  ],
  "textures": [
    {
      "sampler": 0,
      "source": 0
    },
    {
      "sampler": 0,
      "source": 1
    },
    {
      "sampler": 0,
      "source": 2
    },
    {
      "sampler": 0,
      "source": 3
    },
    {
      "sampler": 0,
      "source": 4
    }
  ]
}

